<mxfile host="app.diagrams.net" modified="2023-11-20T13:45:53.388Z" agent="Mozilla/5.0 (X11; Ubuntu; Linux x86_64; rv:109.0) Gecko/20100101 Firefox/119.0" etag="k0nSdnECuhClj6K291ih" version="22.1.3" type="device">
  <diagram name="Page-1" id="nRZG2k6_YSGs5vesCo68">
    <mxGraphModel dx="1364" dy="795" grid="1" gridSize="10" guides="1" tooltips="1" connect="1" arrows="1" fold="1" page="1" pageScale="1" pageWidth="850" pageHeight="1100" math="0" shadow="0">
      <root>
        <mxCell id="0" />
        <mxCell id="1" parent="0" />
        <mxCell id="ZaNe39bWB0-C9Q9xYOwS-1" value="&lt;font style=&quot;font-size: 19px;&quot;&gt;&lt;span style=&quot;white-space: pre;&quot;&gt;&#x9;&lt;/span&gt;Awareness&lt;span style=&quot;white-space: pre;&quot;&gt;&#x9;&lt;/span&gt;&lt;/font&gt;" style="rounded=0;whiteSpace=wrap;html=1;fillColor=#d80073;fontColor=#ffffff;strokeColor=#A50040;" vertex="1" parent="1">
          <mxGeometry x="40" y="340" width="120" height="60" as="geometry" />
        </mxCell>
        <mxCell id="ZaNe39bWB0-C9Q9xYOwS-2" value="&lt;font style=&quot;font-size: 17px;&quot;&gt;Consideration&lt;/font&gt;" style="rounded=0;whiteSpace=wrap;html=1;fillColor=#1ba1e2;strokeColor=#006EAF;fontColor=#ffffff;" vertex="1" parent="1">
          <mxGeometry x="200" y="340" width="120" height="60" as="geometry" />
        </mxCell>
        <mxCell id="ZaNe39bWB0-C9Q9xYOwS-3" value="&lt;font style=&quot;font-size: 18px;&quot;&gt;Decision&lt;/font&gt;" style="rounded=0;whiteSpace=wrap;html=1;fillColor=#a20025;fontColor=#ffffff;strokeColor=#6F0000;" vertex="1" parent="1">
          <mxGeometry x="360" y="340" width="120" height="60" as="geometry" />
        </mxCell>
        <mxCell id="ZaNe39bWB0-C9Q9xYOwS-4" value="&lt;font style=&quot;font-size: 17px;&quot;&gt;Retention&lt;/font&gt;" style="rounded=0;whiteSpace=wrap;html=1;fillColor=#0050ef;fontColor=#ffffff;strokeColor=#001DBC;" vertex="1" parent="1">
          <mxGeometry x="520" y="340" width="120" height="60" as="geometry" />
        </mxCell>
        <mxCell id="ZaNe39bWB0-C9Q9xYOwS-5" value="&lt;font style=&quot;font-size: 18px;&quot;&gt;Advocacy&lt;/font&gt;" style="rounded=0;whiteSpace=wrap;html=1;fillColor=#008a00;fontColor=#ffffff;strokeColor=#005700;" vertex="1" parent="1">
          <mxGeometry x="690" y="340" width="120" height="60" as="geometry" />
        </mxCell>
        <mxCell id="ZaNe39bWB0-C9Q9xYOwS-6" value="" style="endArrow=classic;html=1;rounded=0;exitX=1;exitY=0.5;exitDx=0;exitDy=0;entryX=0;entryY=0.5;entryDx=0;entryDy=0;" edge="1" parent="1" source="ZaNe39bWB0-C9Q9xYOwS-1" target="ZaNe39bWB0-C9Q9xYOwS-2">
          <mxGeometry width="50" height="50" relative="1" as="geometry">
            <mxPoint x="120" y="380" as="sourcePoint" />
            <mxPoint x="170" y="330" as="targetPoint" />
          </mxGeometry>
        </mxCell>
        <mxCell id="ZaNe39bWB0-C9Q9xYOwS-7" value="" style="endArrow=classic;html=1;rounded=0;exitX=1;exitY=0.5;exitDx=0;exitDy=0;entryX=0;entryY=0.5;entryDx=0;entryDy=0;" edge="1" parent="1" source="ZaNe39bWB0-C9Q9xYOwS-2" target="ZaNe39bWB0-C9Q9xYOwS-3">
          <mxGeometry width="50" height="50" relative="1" as="geometry">
            <mxPoint x="400" y="440" as="sourcePoint" />
            <mxPoint x="450" y="390" as="targetPoint" />
          </mxGeometry>
        </mxCell>
        <mxCell id="ZaNe39bWB0-C9Q9xYOwS-8" value="" style="endArrow=classic;html=1;rounded=0;exitX=1;exitY=0.5;exitDx=0;exitDy=0;entryX=0;entryY=0.5;entryDx=0;entryDy=0;" edge="1" parent="1" source="ZaNe39bWB0-C9Q9xYOwS-3" target="ZaNe39bWB0-C9Q9xYOwS-4">
          <mxGeometry width="50" height="50" relative="1" as="geometry">
            <mxPoint x="450" y="400" as="sourcePoint" />
            <mxPoint x="500" y="350" as="targetPoint" />
          </mxGeometry>
        </mxCell>
        <mxCell id="ZaNe39bWB0-C9Q9xYOwS-9" value="" style="endArrow=classic;html=1;rounded=0;exitX=1;exitY=0.5;exitDx=0;exitDy=0;entryX=0;entryY=0.5;entryDx=0;entryDy=0;" edge="1" parent="1" source="ZaNe39bWB0-C9Q9xYOwS-4" target="ZaNe39bWB0-C9Q9xYOwS-5">
          <mxGeometry width="50" height="50" relative="1" as="geometry">
            <mxPoint x="400" y="440" as="sourcePoint" />
            <mxPoint x="450" y="390" as="targetPoint" />
          </mxGeometry>
        </mxCell>
        <mxCell id="ZaNe39bWB0-C9Q9xYOwS-16" value="I have seen this version of RPG Chess in Hikaru&#39;s Stream, it seems interesting" style="text;html=1;strokeColor=none;fillColor=none;align=center;verticalAlign=middle;whiteSpace=wrap;rounded=0;" vertex="1" parent="1">
          <mxGeometry x="20" y="230" width="160" height="60" as="geometry" />
        </mxCell>
        <mxCell id="ZaNe39bWB0-C9Q9xYOwS-17" value="" style="endArrow=classic;startArrow=classic;html=1;rounded=0;exitX=0.5;exitY=0;exitDx=0;exitDy=0;entryX=0.5;entryY=1;entryDx=0;entryDy=0;" edge="1" parent="1" source="ZaNe39bWB0-C9Q9xYOwS-1" target="ZaNe39bWB0-C9Q9xYOwS-16">
          <mxGeometry width="50" height="50" relative="1" as="geometry">
            <mxPoint x="400" y="440" as="sourcePoint" />
            <mxPoint x="450" y="390" as="targetPoint" />
          </mxGeometry>
        </mxCell>
        <mxCell id="ZaNe39bWB0-C9Q9xYOwS-19" value="I&#39;ll definitely get my friends to play this version so that I can beat them hehe!!" style="text;html=1;strokeColor=none;fillColor=none;align=center;verticalAlign=middle;whiteSpace=wrap;rounded=0;" vertex="1" parent="1">
          <mxGeometry x="685" y="230" width="130" height="30" as="geometry" />
        </mxCell>
        <mxCell id="ZaNe39bWB0-C9Q9xYOwS-20" value="The leveling system is so cool, I will definitely play this again" style="text;html=1;strokeColor=none;fillColor=none;align=center;verticalAlign=middle;whiteSpace=wrap;rounded=0;" vertex="1" parent="1">
          <mxGeometry x="515" y="520" width="130" height="30" as="geometry" />
        </mxCell>
        <mxCell id="ZaNe39bWB0-C9Q9xYOwS-21" value="I will try the RPG version for a change of pace, maybe it will be fun" style="text;html=1;strokeColor=none;fillColor=none;align=center;verticalAlign=middle;whiteSpace=wrap;rounded=0;" vertex="1" parent="1">
          <mxGeometry x="345" y="230" width="150" height="30" as="geometry" />
        </mxCell>
        <mxCell id="ZaNe39bWB0-C9Q9xYOwS-22" value="Despite my enjoyment of chess, I&#39;m tired of studying theory and openings, maybe I should try the RPG version, as it is more dynamic" style="text;html=1;strokeColor=none;fillColor=none;align=center;verticalAlign=middle;whiteSpace=wrap;rounded=0;" vertex="1" parent="1">
          <mxGeometry x="132.5" y="500" width="255" height="70" as="geometry" />
        </mxCell>
        <mxCell id="ZaNe39bWB0-C9Q9xYOwS-23" value="" style="endArrow=classic;startArrow=classic;html=1;rounded=0;exitX=0.5;exitY=0;exitDx=0;exitDy=0;entryX=0.5;entryY=1;entryDx=0;entryDy=0;" edge="1" parent="1" source="ZaNe39bWB0-C9Q9xYOwS-22" target="ZaNe39bWB0-C9Q9xYOwS-2">
          <mxGeometry width="50" height="50" relative="1" as="geometry">
            <mxPoint x="400" y="440" as="sourcePoint" />
            <mxPoint x="450" y="390" as="targetPoint" />
          </mxGeometry>
        </mxCell>
        <mxCell id="ZaNe39bWB0-C9Q9xYOwS-26" value="" style="endArrow=classic;startArrow=classic;html=1;rounded=0;exitX=0.5;exitY=1;exitDx=0;exitDy=0;entryX=0.5;entryY=0;entryDx=0;entryDy=0;" edge="1" parent="1" source="ZaNe39bWB0-C9Q9xYOwS-21" target="ZaNe39bWB0-C9Q9xYOwS-3">
          <mxGeometry width="50" height="50" relative="1" as="geometry">
            <mxPoint x="400" y="440" as="sourcePoint" />
            <mxPoint x="450" y="390" as="targetPoint" />
          </mxGeometry>
        </mxCell>
        <mxCell id="ZaNe39bWB0-C9Q9xYOwS-27" value="" style="endArrow=classic;startArrow=classic;html=1;rounded=0;entryX=0.5;entryY=1;entryDx=0;entryDy=0;" edge="1" parent="1" target="ZaNe39bWB0-C9Q9xYOwS-4">
          <mxGeometry width="50" height="50" relative="1" as="geometry">
            <mxPoint x="580" y="510" as="sourcePoint" />
            <mxPoint x="450" y="390" as="targetPoint" />
          </mxGeometry>
        </mxCell>
        <mxCell id="ZaNe39bWB0-C9Q9xYOwS-30" value="" style="endArrow=classic;startArrow=classic;html=1;rounded=0;exitX=0.5;exitY=0;exitDx=0;exitDy=0;" edge="1" parent="1" source="ZaNe39bWB0-C9Q9xYOwS-5">
          <mxGeometry width="50" height="50" relative="1" as="geometry">
            <mxPoint x="400" y="440" as="sourcePoint" />
            <mxPoint x="750" y="280" as="targetPoint" />
          </mxGeometry>
        </mxCell>
      </root>
    </mxGraphModel>
  </diagram>
</mxfile>
